HIERARCHY
ROOT Hips
{
	OFFSET 0.00000 0.00000 0.00000
	CHANNELS 6 Xposition Yposition Zposition Zrotation Yrotation Xrotation 
	JOINT LHipJoint
	{
		OFFSET 0 0 0
		CHANNELS 3 Zrotation Yrotation Xrotation
		JOINT LeftUpLeg
		{
			OFFSET 1.54859 -1.61379 0.86856
			CHANNELS 3 Zrotation Yrotation Xrotation
			JOINT LeftLeg
			{
				OFFSET 2.25087 -6.18423 0.00000
				CHANNELS 3 Zrotation Yrotation Xrotation
				JOINT LeftFoot
				{
					OFFSET 2.40328 -6.60297 0.00000
					CHANNELS 3 Zrotation Yrotation Xrotation
					JOINT LeftToeBase
					{
						OFFSET 0.17435 -0.47901 2.02453
						CHANNELS 3 Zrotation Yrotation Xrotation
						End Site
						{
							OFFSET 0.00000 -0.00000 1.04844
						}
					}
				}
			}
		}
	}
	JOINT RHipJoint
	{
		OFFSET 0 0 0
		CHANNELS 3 Zrotation Yrotation Xrotation
		JOINT RightUpLeg
		{
			OFFSET -1.54669 -1.61379 0.86856
			CHANNELS 3 Zrotation Yrotation Xrotation
			JOINT RightLeg
			{
				OFFSET -2.28132 -6.26789 0.00000
				CHANNELS 3 Zrotation Yrotation Xrotation
				JOINT RightFoot
				{
					OFFSET -2.51636 -6.91365 0.00000
					CHANNELS 3 Zrotation Yrotation Xrotation
					JOINT RightToeBase
					{
						OFFSET -0.15124 -0.41552 2.21090
						CHANNELS 3 Zrotation Yrotation Xrotation
						End Site
						{
							OFFSET -0.00000 -0.00000 1.13399
						}
					}
				}
			}
		}
	}
	JOINT LowerBack
	{
		OFFSET 0 0 0
		CHANNELS 3 Zrotation Yrotation Xrotation
		JOINT Spine
		{
			OFFSET -0.04287 2.26161 -0.25690
			CHANNELS 3 Zrotation Yrotation Xrotation
			JOINT Spine1
			{
				OFFSET 0.02248 2.28395 -0.10140
				CHANNELS 3 Zrotation Yrotation Xrotation
				JOINT Neck
				{
					OFFSET 0 0 0
					CHANNELS 3 Zrotation Yrotation Xrotation
					JOINT Neck1
					{
						OFFSET -0.11644 1.38496 0.11345
						CHANNELS 3 Zrotation Yrotation Xrotation
						JOINT Head
						{
							OFFSET 0.29383 1.36600 0.06642
							CHANNELS 3 Zrotation Yrotation Xrotation
							End Site
							{
								OFFSET 0.11075 1.41395 -0.00294
							}
						}
					}
				}
				JOINT LeftShoulder
				{
					OFFSET 0 0 0
					CHANNELS 3 Zrotation Yrotation Xrotation
					JOINT LeftArm
					{
						OFFSET 3.51628 0.59542 -0.30346
						CHANNELS 3 Zrotation Yrotation Xrotation
						JOINT LeftForeArm
						{
							OFFSET 4.76405 -0.00000 0.00000
							CHANNELS 3 Zrotation Yrotation Xrotation
							JOINT LeftHand
							{
								OFFSET 3.13759 -0.00000 -0.00000
								CHANNELS 3 Zrotation Yrotation Xrotation
								JOINT LeftFingerBase
								{
									OFFSET 0 0 0
									CHANNELS 3 Zrotation Yrotation Xrotation
									JOINT LeftHandIndex1
									{
										OFFSET 0.73226 -0.00000 -0.00000
										CHANNELS 3 Zrotation Yrotation Xrotation
										End Site
										{
											OFFSET 0.59037 -0.00000 -0.00000
										}
									}
								}
								JOINT LThumb
								{
									OFFSET 0 0 0
									CHANNELS 3 Zrotation Yrotation Xrotation
									End Site
									{
										OFFSET 0.59938 -0.00000 0.59938
									}
								}
							}
						}
					}
				}
				JOINT RightShoulder
				{
					OFFSET 0 0 0
					CHANNELS 3 Zrotation Yrotation Xrotation
					JOINT RightArm
					{
						OFFSET -3.30990 0.84213 -0.36430
						CHANNELS 3 Zrotation Yrotation Xrotation
						JOINT RightForeArm
						{
							OFFSET -5.10161 -0.00000 -0.00000
							CHANNELS 3 Zrotation Yrotation Xrotation
							JOINT RightHand
							{
								OFFSET -3.23267 -0.00000 -0.00000
								CHANNELS 3 Zrotation Yrotation Xrotation
								JOINT RightFingerBase
								{
									OFFSET 0 0 0
									CHANNELS 3 Zrotation Yrotation Xrotation
									JOINT RightHandIndex1
									{
										OFFSET -0.70200 -0.00000 -0.00000
										CHANNELS 3 Zrotation Yrotation Xrotation
										End Site
										{
											OFFSET -0.56597 -0.00000 -0.00000
										}
									}
								}
								JOINT RThumb
								{
									OFFSET 0 0 0
									CHANNELS 3 Zrotation Yrotation Xrotation
									End Site
									{
										OFFSET -0.57461 -0.00000 0.57461
									}
								}
							}
						}
					}
				}
			}
		}
	}
}
MOTION
Frames: 8
Frame Time: 0.0625
0.00 0.00 0.00 0 0 0 0 0 0 -21 0 0 0 0 0 0 0 0 0 0 0 0 0 0 21 0 0 0 0 0 0 0 0 0 0 0 0 0 0 0 0 0 0 0 0 0 0 -16 0 0 21 0 0 11 0 0 0 -8 0 0 0 0 0 0 0 0 0 0 0 0 0 0 0 0 0 0 0 0 8 0 0 0 0 0 0 0 0 0 0 0 0 0 0 0 0 0
0.00 0.00 0.00 108.3530 85.1387 122.3750 0.0000 0.0000 0.0000 -21.4160 5.4962 26.2951 0.5556 4.7746 13.2667 -0.6015 14.5837 0.2853 0.5236 -4.6372 -12.8765 0.0000 0.0000 0.0000 5.6048 20.0385 -63.2569 -14.6680 -19.3043 74.2345 -0.2471 3.8543 -8.8533 -3.1409 10.9197 -32.0095 -11.7113 -4.9536 15.5516 3.0539 -7.7742 5.8262 10.9953 -4.0558 -0.2976 -7.9742 -0.1920 -9.1301 8.7864 1.0486 -8.4797 4.3845 0.8290 -1.2344 0.0000 0.0000 0.0000 -80.4487 0.1739 43.4683 88.0997 -59.9864 -58.3544 -0.0000 0.0000 -24.7482 35.6963 18.0745 12.5663 -7.1250 0.0000 -0.0000 7.8563 51.7058 1.3041 0.0000 0.0000 0.0000 85.3514 19.8688 4.1234 -95.2543 59.8954 -64.5488 0.0000 -0.0000 -40.3155 -22.1064 23.3425 -9.1429 7.1250 -0.0000 -0.0000 4.3498 -5.0655 3.9604
0.00 0.00 0.00 88.1731 84.5856 102.0090 0.0000 0.0000 0.0000 -22.4074 8.2828 30.3971 0.8755 5.9655 16.6843 -0.8886 17.6411 0.3734 1.3186 -7.2730 -20.5267 0.0000 0.0000 0.0000 5.8067 18.3686 -60.6933 -8.7582 -16.6496 55.2503 -0.0927 5.7014 -6.2866 -3.1948 11.0039 -32.2929 -12.2811 -5.5528 13.9044 3.2212 -8.5006 5.7169 11.3393 -4.5311 0.7851 -7.9097 0.8700 -9.0684 7.9113 2.4552 -8.8678 4.0776 1.5369 -1.4956 -0.0000 0.0000 0.0000 -78.8439 4.5840 45.6079 83.2026 -59.8247 -54.1167 -0.0000 0.0000 -20.1306 36.6434 15.0437 10.9275 -7.1250 0.0000 -0.0000 8.8624 48.2974 0.7262 -0.0000 0.0000 0.0000 88.8749 21.6730 9.1223 -108.4443 58.6747 -75.9022 0.0000 -0.0000 -28.7084 -25.1134 20.1150 -9.1570 7.1250 -0.0000 -0.0000 2.1229 -7.9698 1.8093
0.00 0.00 0.00 60.3876 82.6474 74.0223 0.0000 0.0000 0.0000 -23.3494 13.1342 25.7411 3.8803 11.9994 35.7297 -0.2402 9.6338 0.9953 1.9149 -8.6865 -24.8196 0.0000 0.0000 0.0000 8.4100 15.1653 -56.9870 -4.8418 -13.2033 40.1345 0.1643 7.8104 -0.4538 -2.3561 9.5714 -27.5996 -14.0487 -5.2024 12.5142 4.1288 -8.1782 5.0104 13.2267 -4.4606 1.1149 -8.1424 2.0093 -8.2475 6.5407 3.9210 -9.8645 3.6342 2.2823 -2.0792 0.0000 -0.0000 0.0000 -80.8673 13.0645 50.5048 68.3214 -58.1476 -41.3425 -0.0000 0.0000 -17.8851 35.1996 19.0440 12.9621 -7.1250 0.0000 -0.0000 7.2807 52.7354 1.3918 0.0000 -0.0000 0.0000 90.7573 26.0655 16.8758 -121.7364 55.8292 -87.0997 0.0000 -0.0000 -15.7412 -24.6694 19.6569 -8.7829 7.1250 -0.0000 -0.0000 2.3612 -8.5360 1.9863
0.00 0.00 0.00 44.4590 81.9996 56.2243 0.0000 0.0000 0.0000 -20.8706 17.5322 19.8376 9.1406 16.8974 56.5753 -0.1587 7.6573 0.4030 2.0859 -9.0427 -25.9289 0.0000 0.0000 0.0000 12.9037 11.0067 -53.4963 -5.0021 -13.3862 40.8318 0.1578 7.5784 -0.2647 -1.7248 8.2677 -23.5303 -12.4067 -4.7382 13.3557 4.4122 -7.4294 5.2515 12.6639 -4.0022 0.4698 -8.3944 2.8277 -8.8988 6.6527 5.1132 -9.7551 3.7367 2.9030 -2.0435 0.0000 -0.0000 0.0000 -83.7546 19.9248 53.6444 53.7255 -54.3918 -29.1770 -0.0000 0.0000 -21.6869 34.7654 18.6260 12.5001 -7.1250 0.0000 -0.0000 6.8416 52.1600 1.2106 0.0000 -0.0000 0.0000 91.1713 30.5062 24.4788 -129.1886 53.3176 -93.1765 0.0000 -0.0000 -3.2631 -21.2706 16.4108 -6.2764 7.1250 -0.0000 -0.0000 4.3326 -12.4783 3.3038
0.00 0.00 0.00 24.5898 81.5981 34.2840 0.0000 0.0000 0.0000 -14.9777 21.7480 12.3758 16.3611 19.6795 79.3059 -0.1544 7.0282 -1.4506 0.8323 -5.8201 -16.2634 0.0000 0.0000 0.0000 16.5233 9.0553 -49.8007 -7.6644 -15.8668 51.3446 -0.2619 6.4524 -9.5213 -0.2710 3.3483 -9.2501 -8.1981 -3.6922 14.3515 3.8931 -5.5126 6.2517 9.5404 -2.8979 -0.1285 -5.2478 3.1421 -10.2543 4.6870 5.3035 -10.0748 2.4862 2.9489 -1.7579 0.0000 -0.0000 0.0000 -85.1411 24.6941 55.9848 39.2145 -47.5976 -17.8570 -0.0000 0.0000 -21.7347 31.3900 22.3972 13.0880 -7.1250 0.0000 -0.0000 2.6963 55.7294 0.7103 0.0000 -0.0000 0.0000 90.8455 35.7194 32.3944 -134.1220 51.1915 -97.0791 0.0000 0.0000 6.0318 -17.0841 13.7733 -4.1849 7.1250 -0.0000 -0.0000 7.0657 -15.6697 4.9329
0.00 0.00 0.00 -0.2152 82.0932 7.6364 0.0000 0.0000 0.0000 -5.3276 22.5384 3.7320 23.9215 19.6272 101.5346 -0.0733 4.9140 -0.6493 0.0770 -1.7904 -4.9269 0.0000 0.0000 0.0000 20.4561 9.2992 -44.1086 -9.9841 -17.4009 59.4351 -1.0880 1.0714 -19.3908 -0.8994 6.0441 -16.9125 -3.8785 -2.7189 16.9394 4.4814 -3.5801 7.2243 7.5948 -1.7737 -1.1795 -4.4046 2.7268 -11.2029 4.1997 4.8732 -12.2216 2.1716 2.7777 -2.2507 -0.0000 0.0000 0.0000 -87.4928 27.9356 56.4374 27.2150 -38.3835 -9.6323 -0.0000 0.0000 -16.9159 30.0533 28.7092 15.5325 -7.1250 0.0000 -0.0000 -0.7486 62.3022 -0.3149 -0.0000 0.0000 0.0000 88.1147 39.1592 40.0523 -134.8785 50.8278 -97.6671 0.0000 0.0000 16.3147 -21.3168 15.3699 -5.9050 7.1250 -0.0000 -0.0000 4.2436 -13.5731 3.1379
0.00 0.00 0.00 -55.1662 84.5191 -45.8776 0.0000 0.0000 0.0000 2.1117 15.0570 -19.6828 30.3690 17.1971 121.7521 -0.0884 -5.8150 -0.5067 1.1850 -6.9084 -19.4441 0.0000 0.0000 0.0000 26.1027 2.0516 -29.3246 -8.5705 -16.5232 54.5924 -2.0482 -4.6027 -28.9926 -3.2545 11.0961 -32.6046 3.3741 -1.1716 15.6519 5.3588 -0.4244 7.0716 3.8000 -0.0244 -1.2524 -8.5983 -1.7302 -11.9733 9.8044 -0.0104 -13.9196 4.4319 0.5110 -2.1630 0.0000 -0.0000 0.0000 -82.3815 35.3247 61.8203 23.6994 -34.8448 -7.5341 -0.0000 0.0000 -16.3321 27.1203 42.8115 19.1913 -7.1250 0.0000 -0.0000 -19.3928 75.4241 -14.0030 0.0000 -0.0000 0.0000 81.0458 34.8909 41.3169 -125.2761 54.7317 -90.0095 0.0000 0.0000 23.9884 -28.1282 19.6017 -10.1674 7.1250 -0.0000 -0.0000 0.1364 -7.9905 0.1161
